<svg width="80" height="16" viewBox="0 0 80 16" fill="none" xmlns="http://www.w3.org/2000/svg">
<g clip-path="url(#clip0_4310_13388)">
<path fill-rule="evenodd" clip-rule="evenodd" d="M0 5.66063L1.52422 2.98926H4.43521L2.91192 5.65835L5.72279 10.4896L9.38629 10.4588L11.9493 6.05363L13.4191 8.53126L13.4166 8.53523L10.8418 12.9608L5.71684 13.0031L5.71455 12.9994L4.27684 13.0112L0 5.66063Z" fill="url(#paint0_linear_4310_13388)"/>
<path fill-rule="evenodd" clip-rule="evenodd" d="M15.3741 0L16.9503 2.62599L15.4885 5.10917L13.9138 2.48498H8.26759L6.45491 5.62539L9.02909 9.99809L6.11957 10.022L6.11728 10.0179L3.53125 5.62494L6.06728 1.2324H6.07175L6.78349 0H15.3741Z" fill="url(#paint1_linear_4310_13388)"/>
<path fill-rule="evenodd" clip-rule="evenodd" d="M16.2224 7.38204L16.2246 7.37795L13.6304 2.98926H8.49179H8.48676L7.0625 5.49439H12.1779L14.0329 8.6317L11.228 13.4697L8.14284 13.4951L9.59532 16.0002L12.6822 15.9743L16.9502 8.61339L16.2224 7.38204Z" fill="url(#paint2_linear_4310_13388)"/>
<path d="M21.2488 13.6742C21.5917 13.6742 21.8737 13.5618 22.082 13.3544L21.9258 13.1427C21.7609 13.3112 21.5179 13.4063 21.2792 13.4063C20.8279 13.4063 20.5502 13.0779 20.5242 12.6847H22.2208V12.6026C22.2208 11.976 21.8477 11.4834 21.2141 11.4834C20.6153 11.4834 20.1814 11.9717 20.1814 12.5766C20.1814 13.2291 20.6283 13.6742 21.2488 13.6742ZM21.8997 12.447H20.5242C20.5416 12.1273 20.7628 11.7513 21.2098 11.7513C21.6871 11.7513 21.8954 12.1359 21.8997 12.447Z" fill="#C0C6D4"/>
<path d="M23.9241 13.6222L24.7963 11.5352H24.4404L23.7462 13.2463L23.0475 11.5352H22.696L23.5683 13.6222H23.9241Z" fill="#C0C6D4"/>
<path d="M26.3115 13.6742C26.9494 13.6742 27.3486 13.1816 27.3486 12.5766C27.3486 11.9717 26.9494 11.4834 26.3115 11.4834C25.6737 11.4834 25.2744 11.9717 25.2744 12.5766C25.2744 13.1816 25.6737 13.6742 26.3115 13.6742ZM26.3115 13.3847C25.8646 13.3847 25.6129 13.0044 25.6129 12.5766C25.6129 12.1532 25.8646 11.7729 26.3115 11.7729C26.7583 11.7729 27.0057 12.1532 27.0057 12.5766C27.0057 13.0044 26.7583 13.3847 26.3115 13.3847Z" fill="#C0C6D4"/>
<path d="M28.4649 13.6224V10.7402H28.1394V13.6224H28.4649Z" fill="#C0C6D4"/>
<path d="M31.1148 13.6222V11.5352H30.7892V13.0691C30.6677 13.2377 30.4248 13.3846 30.1687 13.3846C29.8866 13.3846 29.7 13.2765 29.7 12.9092V11.5352H29.3745V13.0087C29.3745 13.4623 29.6045 13.6741 30.0429 13.6741C30.3553 13.6741 30.6287 13.5099 30.7892 13.3284V13.6222H31.1148Z" fill="#C0C6D4"/>
<path d="M32.5545 13.6741C32.7453 13.6741 32.8624 13.618 32.945 13.5402L32.8495 13.2982C32.8061 13.3457 32.7192 13.3846 32.6282 13.3846C32.485 13.3846 32.4156 13.2723 32.4156 13.1167V11.8204H32.8408V11.5352H32.4156V10.9648H32.09V11.5352H31.7429V11.8204H32.09V13.1859C32.09 13.497 32.2463 13.6741 32.5545 13.6741Z" fill="#C0C6D4"/>
<path d="M33.7212 11.2372C33.8428 11.2372 33.9426 11.1422 33.9426 11.0212C33.9426 10.9002 33.8428 10.8008 33.7212 10.8008C33.6041 10.8008 33.5044 10.9002 33.5044 11.0212C33.5044 11.1422 33.6041 11.2372 33.7212 11.2372ZM33.8862 13.6224V11.5354H33.5607V13.6224H33.8862Z" fill="#C0C6D4"/>
<path d="M35.7114 13.6742C36.3493 13.6742 36.7485 13.1816 36.7485 12.5766C36.7485 11.9717 36.3493 11.4834 35.7114 11.4834C35.0738 11.4834 34.6743 11.9717 34.6743 12.5766C34.6743 13.1816 35.0738 13.6742 35.7114 13.6742ZM35.7114 13.3847C35.2646 13.3847 35.013 13.0044 35.013 12.5766C35.013 12.1532 35.2646 11.7729 35.7114 11.7729C36.1585 11.7729 36.4059 12.1532 36.4059 12.5766C36.4059 13.0044 36.1585 13.3847 35.7114 13.3847Z" fill="#C0C6D4"/>
<path d="M39.2796 13.6223V12.1575C39.2796 11.7038 39.0496 11.4834 38.6114 11.4834C38.2988 11.4834 38.0124 11.6649 37.8651 11.8377V11.5353H37.5396V13.6223H37.8651V12.097C37.9864 11.9285 38.2296 11.7729 38.4853 11.7729C38.7674 11.7729 38.954 11.8896 38.954 12.2569V13.6223H39.2796Z" fill="#C0C6D4"/>
<path d="M42.4844 13.6742C43.1223 13.6742 43.5215 13.1816 43.5215 12.5766C43.5215 11.9717 43.1223 11.4834 42.4844 11.4834C41.8465 11.4834 41.4473 11.9717 41.4473 12.5766C41.4473 13.1816 41.8465 13.6742 42.4844 13.6742ZM42.4844 13.3847C42.0375 13.3847 41.7857 13.0044 41.7857 12.5766C41.7857 12.1532 42.0375 11.7729 42.4844 11.7729C42.9312 11.7729 43.1786 12.1532 43.1786 12.5766C43.1786 13.0044 42.9312 13.3847 42.4844 13.3847Z" fill="#C0C6D4"/>
<path d="M44.729 13.6217V11.8198H45.1543V11.5346H44.729V11.3747C44.729 11.1111 44.8464 10.9642 45.0588 10.9642C45.1675 10.9642 45.2498 11.0074 45.3193 11.0679L45.4538 10.8562C45.3235 10.7352 45.1761 10.6963 45.0111 10.6963C44.638 10.6963 44.4038 10.9469 44.4038 11.3747V11.5346H44.0564V11.8198H44.4038V13.6217H44.729Z" fill="#C0C6D4"/>
<path d="M47.0637 14.4389C47.1245 14.4562 47.2329 14.4692 47.3024 14.4692C47.58 14.4648 47.7926 14.3482 47.9184 14.0457L48.9687 11.5352H48.6129L47.9184 13.2463L47.2197 11.5352H46.8684L47.745 13.6438L47.606 13.9593C47.5324 14.1321 47.4368 14.1796 47.2937 14.1796C47.2416 14.1796 47.1634 14.1667 47.1158 14.1451L47.0637 14.4389Z" fill="#C0C6D4"/>
<path d="M50.4839 13.6742C51.1218 13.6742 51.521 13.1816 51.521 12.5766C51.521 11.9717 51.1218 11.4834 50.4839 11.4834C49.846 11.4834 49.4468 11.9717 49.4468 12.5766C49.4468 13.1816 49.846 13.6742 50.4839 13.6742ZM50.4839 13.3847C50.037 13.3847 49.7852 13.0044 49.7852 12.5766C49.7852 12.1532 50.037 11.7729 50.4839 11.7729C50.931 11.7729 51.1784 12.1532 51.1784 12.5766C51.1784 13.0044 50.931 13.3847 50.4839 13.3847Z" fill="#C0C6D4"/>
<path d="M54.052 13.6222V11.5352H53.7265V13.0691C53.6049 13.2377 53.362 13.3846 53.106 13.3846C52.8239 13.3846 52.6373 13.2765 52.6373 12.9092V11.5352H52.312V13.0087C52.312 13.4623 52.542 13.6741 52.9802 13.6741C53.2925 13.6741 53.566 13.5099 53.7265 13.3284V13.6222H54.052Z" fill="#C0C6D4"/>
<path d="M55.2879 13.6225V12.1446C55.3832 11.9761 55.6566 11.8119 55.8564 11.8119C55.9085 11.8119 55.9474 11.8163 55.9864 11.8249V11.4922C55.7 11.4922 55.4571 11.6521 55.2879 11.8724V11.5354H54.9624V13.6225H55.2879Z" fill="#C0C6D4"/>
<path d="M58.3594 13.0563V12.11C58.4723 11.9285 58.7284 11.773 58.9844 11.773C59.4097 11.773 59.6613 12.1186 59.6613 12.581C59.6613 13.0433 59.4097 13.3847 58.9844 13.3847C58.7284 13.3847 58.4723 13.2378 58.3594 13.0563ZM58.3594 13.6224V13.3113C58.5158 13.523 58.7718 13.6742 59.0668 13.6742C59.6137 13.6742 59.9997 13.2594 59.9997 12.581C59.9997 11.9156 59.6137 11.4834 59.0668 11.4834C58.7805 11.4834 58.5287 11.6217 58.3594 11.8507V10.7402H58.0342V13.6224H58.3594Z" fill="#C0C6D4"/>
<path d="M62.5305 13.6222V11.5352H62.205V13.0691C62.0834 13.2377 61.8405 13.3846 61.5845 13.3846C61.3024 13.3846 61.1158 13.2765 61.1158 12.9092V11.5352H60.7905V13.0087C60.7905 13.4623 61.0205 13.6741 61.4587 13.6741C61.7711 13.6741 62.0445 13.5099 62.205 13.3284V13.6222H62.5305Z" fill="#C0C6D4"/>
<path d="M64.1046 13.6742C64.647 13.6742 64.9291 13.3933 64.9291 13.0433C64.9291 12.2309 63.6315 12.5334 63.6315 12.0754C63.6315 11.8896 63.8096 11.747 64.0959 11.747C64.3649 11.747 64.5949 11.8593 64.7207 12.0106L64.8725 11.7859C64.7033 11.6174 64.4517 11.4834 64.0959 11.4834C63.597 11.4834 63.3149 11.76 63.3149 12.084C63.3149 12.8575 64.6122 12.5464 64.6122 13.0519C64.6122 13.2593 64.4386 13.4106 64.1175 13.4106C63.8312 13.4106 63.5665 13.2723 63.4275 13.1124L63.2583 13.3458C63.4709 13.5705 63.7617 13.6742 64.1046 13.6742Z" fill="#C0C6D4"/>
<path d="M65.8787 11.2372C66.0003 11.2372 66.1 11.1422 66.1 11.0212C66.1 10.9002 66.0003 10.8008 65.8787 10.8008C65.7616 10.8008 65.6619 10.9002 65.6619 11.0212C65.6619 11.1422 65.7616 11.2372 65.8787 11.2372ZM66.0437 13.6224V11.5354H65.7182V13.6224H66.0437Z" fill="#C0C6D4"/>
<path d="M68.6931 13.6223V12.1575C68.6931 11.7038 68.4634 11.4834 68.025 11.4834C67.7126 11.4834 67.4263 11.6649 67.2787 11.8377V11.5353H66.9531V13.6223H67.2787V12.097C67.4002 11.9285 67.6431 11.7729 67.8992 11.7729C68.1813 11.7729 68.3679 11.8896 68.3679 12.2569V13.6223H68.6931Z" fill="#C0C6D4"/>
<path d="M70.5495 13.6742C70.8924 13.6742 71.1745 13.5618 71.3827 13.3544L71.2267 13.1427C71.0617 13.3112 70.8188 13.4063 70.5801 13.4063C70.1288 13.4063 69.8511 13.0779 69.8251 12.6847H71.5217V12.6026C71.5217 11.976 71.1485 11.4834 70.5148 11.4834C69.9161 11.4834 69.4822 11.9717 69.4822 12.5766C69.4822 13.2291 69.929 13.6742 70.5495 13.6742ZM71.2006 12.447H69.8251C69.8424 12.1273 70.0638 11.7513 70.5106 11.7513C70.988 11.7513 71.1961 12.1359 71.2006 12.447Z" fill="#C0C6D4"/>
<path d="M72.973 13.6742C73.5154 13.6742 73.7975 13.3933 73.7975 13.0433C73.7975 12.2309 72.5001 12.5334 72.5001 12.0754C72.5001 11.8896 72.678 11.747 72.9643 11.747C73.2335 11.747 73.4633 11.8593 73.5893 12.0106L73.7412 11.7859C73.572 11.6174 73.3201 11.4834 72.9643 11.4834C72.4654 11.4834 72.1833 11.76 72.1833 12.084C72.1833 12.8575 73.4806 12.5464 73.4806 13.0519C73.4806 13.2593 73.3072 13.4106 72.9862 13.4106C72.6996 13.4106 72.4351 13.2723 72.2962 13.1124L72.127 13.3458C72.3396 13.5705 72.6304 13.6742 72.973 13.6742Z" fill="#C0C6D4"/>
<path d="M75.2506 13.6742C75.793 13.6742 76.0751 13.3933 76.0751 13.0433C76.0751 12.2309 74.7775 12.5334 74.7775 12.0754C74.7775 11.8896 74.9554 11.747 75.2419 11.747C75.5109 11.747 75.7409 11.8593 75.8667 12.0106L76.0185 11.7859C75.8493 11.6174 75.5977 11.4834 75.2419 11.4834C74.7427 11.4834 74.4606 11.76 74.4606 12.084C74.4606 12.8575 75.7582 12.5464 75.7582 13.0519C75.7582 13.2593 75.5846 13.4106 75.2635 13.4106C74.9772 13.4106 74.7125 13.2723 74.5735 13.1124L74.4043 13.3458C74.6169 13.5705 74.9077 13.6742 75.2506 13.6742Z" fill="#C0C6D4"/>
<path d="M26.9289 8.89636L28.5236 3.67871H27.0918L26.1154 7.18956L24.9654 3.67871H23.7396L22.5897 7.18956L21.6133 3.67871H20.1814L21.7761 8.89636H23.2514L24.3579 5.34229L25.4645 8.89636H26.9289Z" fill="white"/>
<path d="M31.882 9.02579C32.6956 9.02579 33.5201 8.77731 34.0406 8.30201L33.4333 7.41619C33.097 7.74025 32.4785 7.93472 32.0338 7.93472C31.1443 7.93472 30.6127 7.38377 30.5259 6.7248H34.4204V6.42235C34.4204 4.71552 33.3572 3.54883 31.7951 3.54883C30.2004 3.54883 29.083 4.76952 29.083 6.28192C29.083 7.9563 30.2872 9.02579 31.882 9.02579ZM33.0862 5.79578H30.5043C30.5693 5.27725 30.9383 4.6399 31.7951 4.6399C32.7064 4.6399 33.0535 5.29886 33.0862 5.79578Z" fill="white"/>
<path d="M37.0102 7.22137V5.37413C37.2379 5.02845 37.7479 4.76917 38.1926 4.76917C38.9955 4.76917 39.5271 5.38493 39.5271 6.29234C39.5271 7.19978 38.9955 7.80471 38.1926 7.80471C37.7479 7.80471 37.2379 7.55627 37.0102 7.22137ZM37.0102 8.89578V8.22604C37.4223 8.74454 37.9973 9.02543 38.6265 9.02543C39.95 9.02543 40.9481 8.03157 40.9481 6.29234C40.9481 4.58554 39.9607 3.54848 38.6265 3.54848C38.0081 3.54848 37.4223 3.81856 37.0102 4.34787V1.69043H35.6323V8.89578H37.0102Z" fill="white"/>
<path d="M44.6357 9.02579C46.3715 9.02579 47.4128 7.77267 47.4128 6.28192C47.4128 4.80194 46.3715 3.54883 44.6357 3.54883C42.911 3.54883 41.8694 4.80194 41.8694 6.28192C41.8694 7.77267 42.911 9.02579 44.6357 9.02579ZM44.6357 7.80506C43.7786 7.80506 43.3015 7.1029 43.3015 6.28192C43.3015 5.47171 43.7786 4.76952 44.6357 4.76952C45.4928 4.76952 45.981 5.47171 45.981 6.28192C45.981 7.1029 45.4928 7.80506 44.6357 7.80506Z" fill="white"/>
<path d="M50.0297 8.89578V1.69043H48.6521V8.89578H50.0297Z" fill="white"/>
<path d="M56.527 8.89636V3.67871H55.1494V7.21117C54.9107 7.51362 54.4875 7.80529 53.956 7.80529C53.3702 7.80529 52.9904 7.56766 52.9904 6.84388V3.67871H51.6128V7.384C51.6128 8.39945 52.1552 9.02602 53.3052 9.02602C54.162 9.02602 54.7912 8.63711 55.1494 8.2374V8.89636H56.527Z" fill="white"/>
<path d="M59.8696 9.02522C60.4446 9.02522 60.8133 8.87398 61.0196 8.69032L60.7267 7.65328C60.6506 7.72888 60.4554 7.8045 60.2493 7.8045C59.9454 7.8045 59.772 7.55605 59.772 7.23196V4.87699H60.8351V3.67791H59.772V2.25195H58.3833V3.67791H57.5154V4.87699H58.3833V7.59925C58.3833 8.52827 58.9041 9.02522 59.8696 9.02522Z" fill="white"/>
<path d="M62.678 3.11654C63.1338 3.11654 63.5025 2.74925 63.5025 2.29555C63.5025 1.84184 63.1338 1.48535 62.678 1.48535C62.2333 1.48535 61.8535 1.84184 61.8535 2.29555C61.8535 2.74925 62.2333 3.11654 62.678 3.11654ZM63.3725 8.89595V3.6783H61.9946V8.89595H63.3725Z" fill="white"/>
<path d="M67.3852 9.02579C69.121 9.02579 70.1623 7.77267 70.1623 6.28192C70.1623 4.80194 69.121 3.54883 67.3852 3.54883C65.6605 3.54883 64.6189 4.80194 64.6189 6.28192C64.6189 7.77267 65.6605 9.02579 67.3852 9.02579ZM67.3852 7.80506C66.5284 7.80506 66.051 7.1029 66.051 6.28192C66.051 5.47171 66.5284 4.76952 67.3852 4.76952C68.2423 4.76952 68.7305 5.47171 68.7305 6.28192C68.7305 7.1029 68.2423 7.80506 67.3852 7.80506Z" fill="white"/>
<path d="M76.3158 8.89613V5.21243C76.3158 4.19699 75.7627 3.54883 74.6127 3.54883C73.7556 3.54883 73.1156 3.95935 72.7792 4.35903V3.67848H71.4016V8.89613H72.7792V5.38529C73.0071 5.072 73.4303 4.76952 73.9727 4.76952C74.5585 4.76952 74.9382 5.018 74.9382 5.74177V8.89613H76.3158Z" fill="white"/>
<path d="M79.9997 2.81264L79.9968 2.78108C79.9947 2.75973 79.9928 2.73825 79.9902 2.71753C79.9626 2.4552 79.8734 2.2137 79.7249 1.9999C79.5049 1.68162 79.2031 1.4679 78.8278 1.36472C78.727 1.33686 78.6205 1.31989 78.5107 1.31421L78.4936 1.31152L78.3481 1.31168L78.2513 1.32081C78.0557 1.34146 77.8705 1.39674 77.7005 1.48517C77.3539 1.66657 77.1026 1.94178 76.9541 2.30328C76.8968 2.44453 76.861 2.59523 76.8484 2.75008C76.8462 2.77117 76.8436 2.79221 76.842 2.81631L76.8423 2.95787L76.8452 2.98906C76.847 3.01054 76.8489 3.0321 76.8515 3.05301C76.8791 3.31415 76.9681 3.55527 77.116 3.76962C77.3057 4.04582 77.5613 4.24511 77.8752 4.36196C78.0489 4.42651 78.2286 4.45922 78.4094 4.45922C78.4397 4.45922 78.4699 4.4583 78.5002 4.45652C78.9573 4.42935 79.3394 4.23845 79.6357 3.88884C79.816 3.67635 79.931 3.42662 79.977 3.1472C79.9836 3.10979 79.9873 3.07202 79.991 3.03425C79.9928 3.01421 79.9949 2.9942 79.9984 2.96708L79.9999 2.95811L79.9997 2.81264ZM78.4236 1.55626L78.4255 1.59457C79.1381 1.59549 79.717 2.17508 79.7163 2.88647C79.7149 3.59782 79.1339 4.17649 78.4202 4.17649C78.0744 4.1761 77.7491 4.04144 77.5047 3.7974C77.2602 3.55344 77.1257 3.2294 77.1262 2.88519C77.127 2.17355 77.7089 1.59457 78.4236 1.59457V1.55626Z" fill="white"/>
<path d="M77.7907 2.0332C77.7859 2.0332 77.782 2.03374 77.7754 2.03474L77.7415 2.03865V3.81765H78.0325V3.05944L78.1446 3.0592C78.1783 3.0592 78.2117 3.05928 78.2472 3.05973C78.2815 3.0602 78.3167 3.06059 78.3486 3.06634C78.4036 3.07609 78.4501 3.10379 78.4872 3.1487C78.5246 3.19407 78.5728 3.25451 78.6138 3.31958C78.6901 3.44026 78.7646 3.56234 78.8388 3.68438L78.9025 3.78864C78.908 3.79685 78.9225 3.81873 78.9549 3.81873H78.9557C78.9999 3.81844 79.0438 3.81844 79.0878 3.81844H79.1972C79.2017 3.81844 79.2054 3.81805 79.2151 3.81697L79.2744 3.81199L79.2457 3.76016C79.2412 3.75226 79.2378 3.74673 79.2346 3.74196L79.172 3.63872C79.127 3.56409 79.0817 3.48955 79.0359 3.4154C78.9862 3.33611 78.9351 3.25411 78.8799 3.17619C78.8343 3.1114 78.7844 3.05973 78.7275 3.01952C78.7433 3.01545 78.7588 3.01107 78.7743 3.00622C78.9038 2.96561 78.998 2.89254 79.0546 2.78875C79.1378 2.63651 79.1422 2.47416 79.0686 2.30603C79.0154 2.1852 78.9283 2.10552 78.8096 2.06913C78.732 2.04564 78.6459 2.03451 78.5388 2.03405C78.3699 2.03328 78.2009 2.0332 78.0322 2.0332H77.7907ZM78.0325 2.78752V2.29935H78.1993C78.3157 2.29935 78.432 2.29951 78.548 2.30104C78.5817 2.3015 78.6191 2.30757 78.6599 2.31916C78.7549 2.34618 78.8154 2.42495 78.8183 2.52482C78.8212 2.624 78.7854 2.69472 78.7088 2.74106C78.6722 2.76325 78.6286 2.77592 78.5715 2.78091C78.5265 2.78484 78.4801 2.78699 78.4336 2.78728C78.3744 2.7876 78.3154 2.78775 78.2565 2.78775L78.0325 2.78752Z" fill="white"/>
</g>
<defs>
<linearGradient id="paint0_linear_4310_13388" x1="-0.0310662" y1="3.04581" x2="10.8228" y2="12.724" gradientUnits="userSpaceOnUse">
<stop stop-color="#F97695"/>
<stop offset="1" stop-color="#FEDD44"/>
</linearGradient>
<linearGradient id="paint1_linear_4310_13388" x1="14.6351" y1="-0.563564" x2="6.56212" y2="10.1828" gradientUnits="userSpaceOnUse">
<stop stop-color="#4AB1FE"/>
<stop offset="1" stop-color="#07EBFE"/>
</linearGradient>
<linearGradient id="paint2_linear_4310_13388" x1="11.9988" y1="15.992" x2="10.1771" y2="2.96398" gradientUnits="userSpaceOnUse">
<stop stop-color="#F3648A"/>
<stop offset="1" stop-color="#FF83D4"/>
</linearGradient>
<clipPath id="clip0_4310_13388">
<rect width="80" height="16" fill="white"/>
</clipPath>
</defs>
</svg>
