<svg width="48" height="48" viewBox="0 0 48 48" fill="none" xmlns="http://www.w3.org/2000/svg">
<path d="M21.3333 37.3333C21.3333 38.8 22.5333 40 24 40C25.4667 40 26.6667 38.8 26.6667 37.3333C26.6667 35.8667 25.4667 34.6667 24 34.6667C22.5333 34.6667 21.3333 35.8667 21.3333 37.3333ZM21.3333 0V10.6667H26.6667V5.54667C35.7067 6.85333 42.6667 14.5867 42.6667 24C42.6667 34.32 34.32 42.6667 24 42.6667C13.68 42.6667 5.33333 34.32 5.33333 24C5.33333 19.52 6.90667 15.4133 9.54667 12.2133L24 26.6667L27.76 22.9067L9.62667 4.77333V4.82667C3.78667 9.2 0 16.1333 0 24C0 37.2533 10.72 48 24 48C37.2533 48 48 37.2533 48 24C48 10.7467 37.2533 0 24 0H21.3333ZM40 24C40 22.5333 38.8 21.3333 37.3333 21.3333C35.8667 21.3333 34.6667 22.5333 34.6667 24C34.6667 25.4667 35.8667 26.6667 37.3333 26.6667C38.8 26.6667 40 25.4667 40 24ZM8 24C8 25.4667 9.2 26.6667 10.6667 26.6667C12.1333 26.6667 13.3333 25.4667 13.3333 24C13.3333 22.5333 12.1333 21.3333 10.6667 21.3333C9.2 21.3333 8 22.5333 8 24Z" fill="#FCE300"/>
</svg>
