<svg width="105" height="45" viewBox="0 0 105 45" fill="none" xmlns="http://www.w3.org/2000/svg">
<path d="M41.608 10.9547H36.779V13.3721H41.2951V15.6011H36.779V18.3252H41.7471V20.6404H34.1567V8.72369H41.608V10.9547Z" fill="#100F00"/>
<path d="M46.9914 13.8451V20.6066H44.2764V8.72369H45.1328L52.295 15.4851V8.77345H55.0294V20.6404H54.2095L46.9914 13.8451Z" fill="#100F00"/>
<path d="M64.378 10.9547H59.5489V13.3721H64.065V15.6011H59.5489V18.3252H64.5171V20.6404H56.9268V8.72369H64.378V10.9547Z" fill="#100F00"/>
<path fill-rule="evenodd" clip-rule="evenodd" d="M77.8019 20.6404V20.284L74.8714 16.3151C76.3281 15.6651 77.236 14.296 77.1939 12.8128C77.1939 10.7042 75.5734 8.7317 72.6014 8.7317C71.3642 8.71969 70.1349 8.72369 68.9029 8.72769C68.286 8.7297 67.6684 8.7317 67.0488 8.7317V20.6404H69.835V16.7135H72.1553L74.8299 20.6404H77.8019ZM74.4954 12.7606C74.5151 13.782 73.754 14.615 72.5818 14.615H69.7979V10.9585H72.5818C73.7715 10.9585 74.4757 11.7394 74.4954 12.7606Z" fill="#100F00"/>
<path d="M84.3297 8.72369C86.874 8.72369 89.4157 9.83585 90.1455 12.5408H87.4597C86.8133 11.4131 85.7967 10.9655 84.3319 10.9655C81.9366 10.9655 80.5817 12.6093 80.5817 14.6791C80.5817 16.8858 82.0464 18.381 84.3319 18.381C86.0875 18.381 87.3695 17.8982 87.9188 16.1568H84.4224V14.0654H90.4214C90.4943 15.1775 90.4579 16.2564 90.0379 17.3177C89.0686 19.6631 86.7812 20.6404 84.3297 20.6404C80.9458 20.6404 77.8008 18.5315 77.8008 14.6811C77.8008 10.8306 80.9651 8.72369 84.3297 8.72369Z" fill="#100F00"/>
<path fill-rule="evenodd" clip-rule="evenodd" d="M92.3496 14.6743C92.3496 18.5637 95.3399 20.6404 98.6487 20.6404C102.399 20.6404 105 18.1833 105 14.6743C105 10.8004 101.939 8.72369 98.7008 8.72369C95.4024 8.72369 92.3496 10.7848 92.3496 14.6743ZM102.364 14.6743C102.364 17.1954 100.612 18.3813 98.6817 18.3813C96.6997 18.3813 95.0206 17.1974 95.0206 14.6743C95.0206 12.2347 96.7709 10.9984 98.7008 10.9984C100.63 10.9984 102.364 12.2172 102.364 14.6743Z" fill="#100F00"/>
<path fill-rule="evenodd" clip-rule="evenodd" d="M32.2583 29.5701C32.2583 33.4596 35.248 35.5362 38.5566 35.5362C42.3088 35.5362 44.9089 33.081 44.9089 29.5701C44.9089 25.6962 41.8484 23.6194 38.6107 23.6194C35.3189 23.6194 32.2583 25.6807 32.2583 29.5701ZM42.2736 29.5702C42.2736 32.0913 40.5214 33.2771 38.5921 33.2771C36.6108 33.2771 34.9295 32.0933 34.9295 29.5702C34.9295 27.1305 36.6816 25.8942 38.6109 25.8942C40.5401 25.8942 42.2736 27.1131 42.2736 29.5702Z" fill="#100F00"/>
<path d="M50.1556 29.3368V36.0983H47.439V24.2155H48.2973L55.4581 30.9769V24.2652H58.1919V36.1321H57.3722L50.1556 29.3368Z" fill="#100F00"/>
<path d="M67.5406 26.4464H62.7115V28.8638H67.2277V31.0929H62.7115V33.8169H67.6797V36.1321H60.0894V24.2155H67.5406V26.4464Z" fill="#100F00"/>
<path fill-rule="evenodd" clip-rule="evenodd" d="M3.09717 16.7866L15.4997 14.8474L19.6331 7.37712C20.901 5.25232 20.2237 2.57766 18.07 1.20476C15.9164 -0.16813 12.9947 0.212292 11.3278 2.08267L11.3086 2.10455C11.1666 2.26691 11.0361 2.43764 10.9178 2.6157L10.8816 2.6694C10.8549 2.7103 10.8294 2.75228 10.8042 2.79376C10.795 2.80875 10.786 2.82367 10.7769 2.83845L10.7577 2.87425C10.7514 2.88532 10.7451 2.89634 10.7388 2.90731C10.709 2.95941 10.6795 3.01062 10.6531 3.0632L3.09717 16.7866ZM23.9528 22.3794C23.8472 22.8617 23.6606 23.3255 23.3999 23.7537L13.5338 41.7732C12.5248 43.767 10.1657 44.8417 7.85681 44.3592C5.5479 43.8769 3.90741 41.9667 3.90905 39.7624V39.5277C3.91079 39.5002 3.91394 39.4731 3.91706 39.4461C3.92162 39.4067 3.92613 39.3678 3.92613 39.3288C3.92508 39.3103 3.92508 39.2917 3.92613 39.2731C3.92873 39.2482 3.93342 39.2233 3.93808 39.1984C3.94495 39.1619 3.95176 39.1257 3.95176 39.0901C3.95411 39.0688 3.95767 39.0475 3.96243 39.0265C3.97097 38.9649 3.98379 38.9052 3.9966 38.8475L4.0094 38.7858C4.02221 38.7242 4.03715 38.6645 4.05424 38.6048L4.06705 38.5571C4.15483 38.2553 4.27426 37.9621 4.4236 37.682L9.95339 27.6182L6.03983 28.2149C3.29594 28.7168 0.634735 27.0516 0.0958614 24.4956C-0.443012 21.9395 1.34451 19.4605 4.0884 18.9585L4.21651 18.9387H4.24853L18.2074 16.7568H18.2352H18.2545C18.2808 16.7525 18.3155 16.7505 18.3499 16.7485C18.3963 16.7457 18.4423 16.7429 18.4679 16.7349C18.5128 16.721 18.5576 16.721 18.6024 16.721C18.7284 16.7071 18.8544 16.7071 18.9825 16.7071C21.2884 16.7079 23.3019 18.1614 23.8781 20.2414C23.9832 20.6262 24.0361 21.0217 24.0361 21.4188C24.0361 21.5302 24.0319 21.6416 24.0233 21.7529C24.0126 21.7947 24.0126 21.8523 24.0126 21.8782V21.9518C24.0102 21.9735 24.006 21.9953 24.002 22.0169C23.9955 22.0506 23.9892 22.0841 23.9892 22.1169C23.9902 22.1322 23.9902 22.1474 23.9892 22.1626C23.9785 22.2323 23.9657 22.2979 23.9528 22.3615V22.3794Z" fill="#1B89FC"/>
</svg>
