<svg width="32" height="32" viewBox="0 0 32 32" fill="none" xmlns="http://www.w3.org/2000/svg">
<g clip-path="url(#clip0_4900_17351)">
<path d="M16.0007 7.99999C17.4734 7.99999 18.6673 6.80608 18.6673 5.33332C18.6673 3.86056 17.4734 2.66666 16.0007 2.66666C14.5279 2.66666 13.334 3.86056 13.334 5.33332C13.334 6.80608 14.5279 7.99999 16.0007 7.99999Z" fill="#1B89FC"/>
<path d="M25.3327 17.3333V14.6666C23.2793 14.6933 21.2127 13.6666 19.906 12.2266L18.186 10.32C17.9593 10.0666 17.6793 9.86664 17.3727 9.71998C17.3593 9.71998 17.3593 9.70664 17.346 9.70664H17.3327C16.866 9.43998 16.3327 9.30664 15.746 9.35998C14.346 9.47998 13.3327 10.72 13.3327 12.12V20C13.3327 21.4666 14.5327 22.6666 15.9993 22.6666H22.666V29.3333H25.3327V22C25.3327 20.5333 24.1327 19.3333 22.666 19.3333H18.666V14.7333C20.386 16.16 22.9993 17.32 25.3327 17.3333ZM17.106 24C16.5593 25.5466 15.0793 26.6666 13.3327 26.6666C11.1193 26.6666 9.33268 24.88 9.33268 22.6666C9.33268 20.92 10.4527 19.4533 11.9993 18.8933V16.1333C8.95935 16.7466 6.66602 19.44 6.66602 22.6666C6.66602 26.3466 9.65268 29.3333 13.3327 29.3333C16.5593 29.3333 19.2527 27.04 19.866 24H17.106Z" fill="#1B89FC"/>
</g>
<defs>
<clipPath id="clip0_4900_17351">
<rect width="32" height="32" fill="white"/>
</clipPath>
</defs>
</svg>
