<svg width="24" height="24" viewBox="0 0 24 24" fill="none" xmlns="http://www.w3.org/2000/svg">
<path d="M18.6667 10.6667C19.12 10.6667 19.56 10.72 20 10.7867V4.36L10 0L0 4.36V10.9067C0 16.96 4.26667 22.6267 10 24C10.7333 23.8267 11.44 23.5733 12.1333 23.2667C11.2133 21.96 10.6667 20.3733 10.6667 18.6667C10.6667 14.2533 14.2533 10.6667 18.6667 10.6667Z" fill="#1B89FC"/>
<path d="M18.6663 13.3333C15.7197 13.3333 13.333 15.72 13.333 18.6667C13.333 21.6133 15.7197 24 18.6663 24C21.613 24 23.9997 21.6133 23.9997 18.6667C23.9997 15.72 21.613 13.3333 18.6663 13.3333ZM18.6663 15.1733C19.493 15.1733 20.1597 15.8533 20.1597 16.6667C20.1597 17.48 19.4797 18.16 18.6663 18.16C17.853 18.16 17.173 17.48 17.173 16.6667C17.173 15.8533 17.8397 15.1733 18.6663 15.1733ZM18.6663 22.3333C17.4263 22.3333 16.3463 21.72 15.6797 20.7733C15.7463 19.8133 17.693 19.3333 18.6663 19.3333C19.6397 19.3333 21.5863 19.8133 21.653 20.7733C20.9863 21.72 19.9063 22.3333 18.6663 22.3333Z" fill="#1B89FC"/>
</svg>
