<svg width="24" height="24" viewBox="0 0 24 24" fill="none" xmlns="http://www.w3.org/2000/svg">
<path d="M13.503 15.4133L15.4096 13.5067L23.9963 22.0973L22.0936 24L13.503 15.4133ZM19.227 7.77333L23.0403 3.96C17.7736 -1.30667 9.2403 -1.32 3.97363 3.93333C9.21363 2.2 15.0536 3.6 19.227 7.77333ZM3.93363 3.97333C-1.3197 9.24 -1.30637 17.7733 3.9603 23.04L7.77363 19.2267C3.6003 15.0533 2.2003 9.21333 3.93363 3.97333ZM3.9603 3.94666L3.94697 3.96C3.4403 7.97333 5.50697 13.1333 9.6803 17.32L17.3203 9.68C13.147 5.50666 7.97363 3.44 3.9603 3.94666Z" fill="#1B89FC"/>
</svg>
