<svg width="32" height="32" viewBox="0 0 32 32" fill="none" xmlns="http://www.w3.org/2000/svg">
<path d="M27.0703 3.97924C26.685 3.996 26.3314 4.10681 26.0208 4.22924C25.7339 4.34225 24.7034 4.77537 23.0625 5.46361C21.4216 6.15186 19.2473 7.06438 16.9297 8.03913C12.2945 9.98863 7.08565 12.1816 4.41667 13.3048C4.32501 13.3429 3.95278 13.4569 3.54167 13.7709C3.1296 14.0856 2.67188 14.7687 2.67188 15.5157C2.67188 16.1183 2.97269 16.732 3.33594 17.0834C3.69918 17.4348 4.06732 17.5991 4.375 17.7214V17.7188C5.41504 18.1332 8.52093 19.376 9.26042 19.6719C9.52272 20.458 10.6488 23.8231 10.9167 24.6693H10.9141C11.1034 25.2683 11.288 25.6586 11.5443 25.9844C11.6724 26.1474 11.8254 26.295 12.013 26.4115C12.085 26.4562 12.1647 26.4909 12.2448 26.5235C12.2559 26.5282 12.2674 26.5294 12.2786 26.5339L12.2474 26.5261C12.2706 26.5354 12.2914 26.5492 12.3151 26.5574C12.3537 26.5706 12.3804 26.5702 12.4323 26.5808C12.615 26.637 12.7973 26.6745 12.9661 26.6745C13.691 26.6745 14.1354 26.2813 14.1354 26.2813L14.1641 26.2605L17.2943 23.612L21.1276 27.1589C21.1976 27.2578 21.7461 28.0001 23.0156 28.0001C23.7731 28.0001 24.372 27.6251 24.7552 27.2318C25.1384 26.8386 25.3771 26.4361 25.4844 25.8907L25.487 25.8881C25.5726 25.4478 29.2422 7.0209 29.2422 7.0209L29.2344 7.05215C29.3486 6.54236 29.3823 6.04935 29.2474 5.54694C29.1125 5.04454 28.7484 4.55424 28.3099 4.29694C27.8714 4.03965 27.4556 3.96248 27.0703 3.97924ZM26.5443 6.89851C26.3993 7.62655 23.112 24.1412 22.9089 25.1772L17.3724 20.0548L13.6302 23.2188L14.6667 19.1667C14.6667 19.1667 21.8167 11.9292 22.2474 11.5079C22.5941 11.1705 22.6667 11.0523 22.6667 10.935C22.6667 10.779 22.5864 10.6667 22.401 10.6667C22.2344 10.6667 22.008 10.8264 21.888 10.9011C20.3632 11.8518 13.8684 15.553 10.6745 17.3699C10.4823 17.2928 7.59653 16.134 6.04167 15.5131C8.80735 14.3491 13.5482 12.3545 17.9635 10.4975C20.2808 9.52288 22.4544 8.60953 24.0937 7.92194C25.4775 7.34153 26.1994 7.04101 26.5443 6.89851ZM22.8698 25.3673H22.8724C22.8723 25.3676 22.8699 25.3747 22.8698 25.3751C22.8715 25.3665 22.8685 25.374 22.8698 25.3673Z" fill="#1B89FC"/>
</svg>
