<svg width="32" height="32" viewBox="0 0 32 32" fill="none" xmlns="http://www.w3.org/2000/svg">
<path d="M29.3334 5.33203C28.2934 5.94936 26.2067 6.7907 24.9801 7.03336C24.9441 7.0427 24.9147 7.0547 24.8801 7.06403C23.7961 5.9947 22.3107 5.33203 20.6667 5.33203C17.3534 5.33203 14.6667 8.0187 14.6667 11.332C14.6667 11.5067 14.6521 11.828 14.6667 11.9987C10.1961 11.9987 6.79341 9.65736 4.35341 6.66536C4.08808 7.33203 3.97208 8.38536 3.97208 9.3747C3.97208 11.2427 5.43208 13.0774 7.70541 14.2147C7.28675 14.3227 6.82541 14.4 6.34541 14.4C5.57075 14.4 4.75075 14.196 4.00008 13.5774C4.00008 13.6 4.00008 13.6214 4.00008 13.6454C4.00008 16.256 6.77075 18.0334 9.23475 18.528C8.73475 18.8227 7.72675 18.852 7.23475 18.852C6.88808 18.852 5.66141 18.6934 5.33341 18.632C6.01875 20.772 8.49075 21.9747 10.8467 22.0174C9.00408 23.4627 7.72541 23.9987 3.95208 23.9987H2.66675C5.05075 25.5267 8.08675 26.6667 11.1294 26.6667C21.0361 26.6667 26.6667 19.116 26.6667 11.9987C26.6667 11.884 26.6641 11.644 26.6601 11.4027C26.6601 11.3787 26.6667 11.356 26.6667 11.332C26.6667 11.296 26.6561 11.2614 26.6561 11.2254C26.6521 11.044 26.6481 10.8747 26.6441 10.7867C27.6974 10.0267 28.6107 9.0787 29.3334 7.9987C28.3667 8.42803 27.3294 8.71603 26.2401 8.8467C27.3521 8.18003 28.9321 6.5907 29.3334 5.33203Z" fill="#1B89FC"/>
</svg>
