<svg width="32" height="32" viewBox="0 0 32 32" fill="none" xmlns="http://www.w3.org/2000/svg">
<path d="M25.3333 4H6.66667C5.19333 4 4 5.19333 4 6.66667V25.3333C4 26.8067 5.19333 28 6.66667 28H25.3333C26.8067 28 28 26.8067 28 25.3333V6.66667C28 5.19333 26.8067 4 25.3333 4ZM23.876 20.912L21.5627 20.944C21.5627 20.944 21.064 21.0413 20.4107 20.5907C19.5453 19.996 18.7293 18.4493 18.0933 18.6507C17.448 18.856 17.468 20.248 17.468 20.248C17.468 20.248 17.4733 20.4933 17.3253 20.6533C17.1653 20.8253 16.852 20.808 16.852 20.808H15.816C15.816 20.808 13.5307 20.9973 11.516 18.8973C9.32133 16.608 7.38267 12.0893 7.38267 12.0893C7.38267 12.0893 7.26933 11.804 7.39067 11.6587C7.528 11.4973 7.89867 11.4933 7.89867 11.4933L10.3747 11.4813C10.3747 11.4813 10.608 11.5227 10.776 11.6453C10.9133 11.7467 10.992 11.9373 10.992 11.9373C10.992 11.9373 11.392 12.952 11.9227 13.8707C12.9573 15.6613 13.4387 16.0533 13.7893 15.8613C14.3013 15.5813 14.148 13.3307 14.148 13.3307C14.148 13.3307 14.1573 12.5133 13.8907 12.1493C13.6827 11.8653 13.292 11.7813 13.12 11.76C12.98 11.7413 13.208 11.4173 13.5053 11.2707C13.9507 11.0533 14.7387 11.04 15.668 11.0493C16.392 11.0573 16.6013 11.1013 16.884 11.1707C17.7387 11.3773 17.448 12.1747 17.448 14.088C17.448 14.7013 17.3373 15.5627 17.7787 15.8467C17.9693 15.9693 18.4333 15.8653 19.592 13.892C20.1427 12.956 20.5547 11.856 20.5547 11.856C20.5547 11.856 20.6453 11.66 20.7853 11.576C20.9293 11.4893 21.1227 11.516 21.1227 11.516L23.7293 11.5C23.7293 11.5 24.512 11.4053 24.64 11.7613C24.7733 12.1333 24.348 13.0013 23.2827 14.4213C21.5347 16.7547 21.34 16.5373 22.792 17.8867C24.1787 19.176 24.4653 19.8027 24.5133 19.8813C25.0867 20.836 23.876 20.912 23.876 20.912Z" fill="#1B89FC"/>
</svg>
