<svg width="32" height="32" viewBox="0 0 32 32" fill="none" xmlns="http://www.w3.org/2000/svg">
<path d="M25.4361 6.5705C22.9214 4.0545 19.5774 2.66784 16.0147 2.6665C8.67341 2.6665 2.69875 8.6385 2.69608 15.9798C2.69475 18.3265 3.30808 20.6172 4.47341 22.6358L2.66675 29.3332L9.64408 27.6838C11.5894 28.7452 13.7787 29.3038 16.0081 29.3052H16.0134C23.3534 29.3052 29.3281 23.3318 29.3321 15.9918C29.3347 12.4332 27.9507 9.08784 25.4361 6.5705ZM22.5307 20.7385C22.2534 21.5158 20.8947 22.2652 20.2841 22.3198C19.6734 22.3758 19.1014 22.5958 16.2907 21.4878C12.9081 20.1545 10.7721 16.6865 10.6067 16.4652C10.4401 16.2425 9.24808 14.6612 9.24808 13.0238C9.24808 11.3865 10.1081 10.5812 10.4134 10.2492C10.7187 9.91584 11.0787 9.83317 11.3014 9.83317C11.5227 9.83317 11.7454 9.83317 11.9387 9.84117C12.1761 9.8505 12.4387 9.8625 12.6881 10.4158C12.9841 11.0745 13.6307 12.7198 13.7134 12.8865C13.7961 13.0532 13.8521 13.2478 13.7414 13.4692C13.6307 13.6905 13.5747 13.8292 13.4094 14.0238C13.2427 14.2185 13.0601 14.4572 12.9107 14.6065C12.7441 14.7718 12.5707 14.9532 12.7641 15.2852C12.9587 15.6185 13.6254 16.7078 14.6147 17.5892C15.8867 18.7225 16.9574 19.0732 17.2907 19.2412C17.6241 19.4078 17.8174 19.3798 18.0121 19.1572C18.2067 18.9358 18.8441 18.1865 19.0654 17.8532C19.2867 17.5198 19.5094 17.5758 19.8147 17.6865C20.1201 17.7972 21.7561 18.6025 22.0881 18.7692C22.4214 18.9358 22.6427 19.0185 22.7254 19.1572C22.8081 19.2945 22.8081 19.9612 22.5307 20.7385Z" fill="#1B89FC"/>
</svg>
