<svg width="32" height="32" viewBox="0 0 32 32" fill="none" xmlns="http://www.w3.org/2000/svg">
<mask id="mask0_4914_17660" style="mask-type:alpha" maskUnits="userSpaceOnUse" x="0" y="0" width="32" height="32">
<rect width="32" height="32" fill="#D9D9D9"/>
</mask>
<g mask="url(#mask0_4914_17660)">
<path d="M9.33333 22.6667H18.6667V20H9.33333V22.6667ZM9.33333 17.3333H22.6667V14.6667H9.33333V17.3333ZM9.33333 12H22.6667V9.33333H9.33333V12ZM6.66667 28C5.93333 28 5.30533 27.7391 4.78267 27.2173C4.26089 26.6947 4 26.0667 4 25.3333V6.66667C4 5.93333 4.26089 5.30533 4.78267 4.78267C5.30533 4.26089 5.93333 4 6.66667 4H25.3333C26.0667 4 26.6947 4.26089 27.2173 4.78267C27.7391 5.30533 28 5.93333 28 6.66667V25.3333C28 26.0667 27.7391 26.6947 27.2173 27.2173C26.6947 27.7391 26.0667 28 25.3333 28H6.66667ZM6.66667 25.3333H25.3333V6.66667H6.66667V25.3333Z" fill="#1B89FC"/>
</g>
</svg>
