<svg width="32" height="32" viewBox="0 0 32 32" fill="none" xmlns="http://www.w3.org/2000/svg">
<g opacity="0.4">
<mask id="mask0_4914_17669" style="mask-type:alpha" maskUnits="userSpaceOnUse" x="0" y="0" width="32" height="32">
<rect width="32" height="32" fill="#D9D9D9"/>
</mask>
<g mask="url(#mask0_4914_17669)">
<path d="M12.5335 22L16.0002 18.5333L19.4668 22L21.3335 20.1333L17.8668 16.6667L21.3335 13.2L19.4668 11.3333L16.0002 14.8L12.5335 11.3333L10.6668 13.2L14.1335 16.6667L10.6668 20.1333L12.5335 22ZM9.3335 28C8.60016 28 7.97261 27.7391 7.45083 27.2173C6.92816 26.6947 6.66683 26.0667 6.66683 25.3333V8H5.3335V5.33333H12.0002V4H20.0002V5.33333H26.6668V8H25.3335V25.3333C25.3335 26.0667 25.0726 26.6947 24.5508 27.2173C24.0282 27.7391 23.4002 28 22.6668 28H9.3335ZM22.6668 8H9.3335V25.3333H22.6668V8Z" fill="#100F00"/>
</g>
</g>
</svg>
