<svg width="56" height="67" viewBox="0 0 56 67" fill="none" xmlns="http://www.w3.org/2000/svg">
<g filter="url(#filter0_d_4291_13048)">
<circle cx="28" cy="26" r="20" fill="#FCE300"/>
<path fill-rule="evenodd" clip-rule="evenodd" d="M22.804 22.0455L30.0279 20.858L32.4354 16.2835C33.1739 14.9824 32.7794 13.3446 31.525 12.5039C30.2706 11.6631 28.5689 11.8961 27.5979 13.0414L27.5868 13.0548C27.5041 13.1543 27.428 13.2588 27.3592 13.3678L27.338 13.4007C27.3225 13.4258 27.3077 13.4515 27.2929 13.4769C27.2876 13.4861 27.2824 13.4952 27.2771 13.5043L27.2659 13.5262C27.2622 13.533 27.2585 13.5397 27.2549 13.5464C27.2375 13.5783 27.2204 13.6097 27.2049 13.6419L22.804 22.0455ZM34.9515 25.4703C34.8899 25.7656 34.7812 26.0496 34.6294 26.3119L28.8828 37.3462C28.2951 38.5672 26.9211 39.2252 25.5762 38.9298C24.2314 38.6345 23.2759 37.4647 23.2769 36.1149V35.9712C23.2779 35.9544 23.2797 35.9377 23.2815 35.9212C23.2842 35.8971 23.2868 35.8733 23.2868 35.8494C23.2862 35.838 23.2862 35.8267 23.2868 35.8153C23.2883 35.8 23.291 35.7848 23.2938 35.7695C23.2978 35.7472 23.3017 35.725 23.3017 35.7032C23.3031 35.6902 23.3052 35.6772 23.3079 35.6643C23.3129 35.6265 23.3204 35.59 23.3278 35.5547L23.3353 35.5169C23.3428 35.4791 23.3515 35.4426 23.3614 35.4061L23.3689 35.3768C23.42 35.192 23.4896 35.0125 23.5766 34.841L26.7974 28.6783L24.5179 29.0437C22.9197 29.3511 21.3697 28.3314 21.0558 26.7662C20.742 25.2009 21.7831 23.6829 23.3813 23.3755L23.4559 23.3633H23.4746L31.605 22.0272H31.6212H31.6324C31.6478 22.0246 31.668 22.0234 31.688 22.0221C31.715 22.0204 31.7418 22.0187 31.7568 22.0139C31.7829 22.0054 31.809 22.0054 31.8351 22.0054C31.9085 21.9968 31.9818 21.9968 32.0565 21.9968C33.3996 21.9973 34.5723 22.8874 34.908 24.1611C34.9692 24.3967 35 24.6389 35 24.8821C35 24.9503 34.9975 25.0185 34.9925 25.0867C34.9863 25.1122 34.9863 25.1476 34.9863 25.1634V25.2085C34.9849 25.2218 34.9825 25.2351 34.9801 25.2483C34.9763 25.269 34.9727 25.2895 34.9727 25.3096C34.9732 25.3189 34.9732 25.3282 34.9727 25.3375C34.9664 25.3802 34.959 25.4204 34.9515 25.4593V25.4703Z" fill="#007BFC"/>
<path d="M27.5 56.5L23 45H32L27.5 56.5Z" fill="#FCE300"/>
</g>
<defs>
<filter id="filter0_d_4291_13048" x="0" y="0" width="56" height="69" filterUnits="userSpaceOnUse" color-interpolation-filters="sRGB">
<feFlood flood-opacity="0" result="BackgroundImageFix"/>
<feColorMatrix in="SourceAlpha" type="matrix" values="0 0 0 0 0 0 0 0 0 0 0 0 0 0 0 0 0 0 127 0" result="hardAlpha"/>
<feOffset dy="2"/>
<feGaussianBlur stdDeviation="4"/>
<feComposite in2="hardAlpha" operator="out"/>
<feColorMatrix type="matrix" values="0 0 0 0 0 0 0 0 0 0 0 0 0 0 0 0 0 0 0.25 0"/>
<feBlend mode="normal" in2="BackgroundImageFix" result="effect1_dropShadow_4291_13048"/>
<feBlend mode="normal" in="SourceGraphic" in2="effect1_dropShadow_4291_13048" result="shape"/>
</filter>
</defs>
</svg>
