<svg width="24" height="25" viewBox="0 0 24 25" fill="none" xmlns="http://www.w3.org/2000/svg">
<path d="M20.3027 3.48406C20.0138 3.49663 19.7486 3.57974 19.5156 3.67156C19.3004 3.75632 18.5275 4.08116 17.2969 4.59734C16.0662 5.11353 14.4355 5.79792 12.6973 6.52898C9.22084 7.99111 5.31424 9.63581 3.3125 10.4782C3.24376 10.5068 2.96459 10.5923 2.65625 10.8278C2.3472 11.0639 2.00391 11.5761 2.00391 12.1364C2.00391 12.5884 2.22952 13.0487 2.50195 13.3122C2.77439 13.5757 3.05049 13.6989 3.28125 13.7907V13.7887C4.06128 14.0995 6.39069 15.0316 6.94531 15.2536C7.14204 15.8431 7.98659 18.367 8.1875 19.0016H8.18555C8.32756 19.4508 8.46598 19.7436 8.6582 19.988C8.75431 20.1102 8.86904 20.2209 9.00977 20.3083C9.06376 20.3418 9.12355 20.3678 9.18359 20.3923C9.19196 20.3958 9.20059 20.3967 9.20898 20.4001L9.18555 20.3942C9.20296 20.4012 9.21858 20.4115 9.23633 20.4177C9.26524 20.4276 9.28529 20.4273 9.32422 20.4352C9.46122 20.4774 9.59798 20.5055 9.72461 20.5055C10.2682 20.5055 10.6016 20.2106 10.6016 20.2106L10.623 20.195L12.9707 18.2087L15.8457 20.8688C15.8982 20.943 16.3096 21.4997 17.2617 21.4997C17.8298 21.4997 18.279 21.2185 18.5664 20.9235C18.8538 20.6286 19.0328 20.3267 19.1133 19.9177L19.1152 19.9157C19.1794 19.5855 21.9316 5.76531 21.9316 5.76531L21.9258 5.78875C22.0114 5.4064 22.0367 5.03665 21.9355 4.65984C21.8344 4.28304 21.5613 3.91531 21.2324 3.72234C20.9036 3.52937 20.5917 3.47149 20.3027 3.48406ZM19.9082 5.67351C19.7994 6.21954 17.334 18.6056 17.1816 19.3825L13.0293 15.5407L10.2227 17.9137L11 14.8747C11 14.8747 16.3625 9.44655 16.6855 9.13055C16.9455 8.87755 17 8.78886 17 8.70086C17 8.58386 16.9398 8.49969 16.8008 8.49969C16.6758 8.49969 16.506 8.61947 16.416 8.67547C15.2724 9.38847 10.4013 12.1644 8.00586 13.527C7.8617 13.4692 5.6974 12.6001 4.53125 12.1345C6.60551 11.2615 10.1612 9.76549 13.4727 8.37273C15.2106 7.64179 16.8408 6.95678 18.0703 6.44109C19.1082 6.00578 19.6495 5.78039 19.9082 5.67351ZM17.1523 19.5251H17.1543C17.1543 19.5253 17.1524 19.5306 17.1523 19.5309C17.1536 19.5245 17.1514 19.5301 17.1523 19.5251Z" fill="white"/>
</svg>
