<svg width="18" height="18" viewBox="0 0 18 18" fill="none" xmlns="http://www.w3.org/2000/svg">
<path d="M16 0H2C0.895 0 0 0.895 0 2V16C0 17.105 0.895 18 2 18H16C17.105 18 18 17.105 18 16V2C18 0.895 17.105 0 16 0ZM14.907 12.684L13.172 12.708C13.172 12.708 12.798 12.781 12.308 12.443C11.659 11.997 11.047 10.837 10.57 10.988C10.086 11.142 10.101 12.186 10.101 12.186C10.101 12.186 10.105 12.37 9.994 12.49C9.874 12.619 9.639 12.606 9.639 12.606H8.862C8.862 12.606 7.148 12.748 5.637 11.173C3.991 9.456 2.537 6.067 2.537 6.067C2.537 6.067 2.452 5.853 2.543 5.744C2.646 5.623 2.924 5.62 2.924 5.62L4.781 5.611C4.781 5.611 4.956 5.642 5.082 5.734C5.185 5.81 5.244 5.953 5.244 5.953C5.244 5.953 5.544 6.714 5.942 7.403C6.718 8.746 7.079 9.04 7.342 8.896C7.726 8.686 7.611 6.998 7.611 6.998C7.611 6.998 7.618 6.385 7.418 6.112C7.262 5.899 6.969 5.836 6.84 5.82C6.735 5.806 6.906 5.563 7.129 5.453C7.463 5.29 8.054 5.28 8.751 5.287C9.294 5.293 9.451 5.326 9.663 5.378C10.304 5.533 10.086 6.131 10.086 7.566C10.086 8.026 10.003 8.672 10.334 8.885C10.477 8.977 10.825 8.899 11.694 7.419C12.107 6.717 12.416 5.892 12.416 5.892C12.416 5.892 12.484 5.745 12.589 5.682C12.697 5.617 12.842 5.637 12.842 5.637L14.797 5.625C14.797 5.625 15.384 5.554 15.48 5.821C15.58 6.1 15.261 6.751 14.462 7.816C13.151 9.566 13.005 9.403 14.094 10.415C15.134 11.382 15.349 11.852 15.385 11.911C15.815 12.627 14.907 12.684 14.907 12.684Z" fill="white"/>
</svg>
