<svg width="24" height="25" viewBox="0 0 24 25" fill="none" xmlns="http://www.w3.org/2000/svg">
<path d="M19.077 5.428C17.191 3.541 14.683 2.501 12.011 2.5C6.505 2.5 2.024 6.979 2.022 12.485C2.021 14.245 2.481 15.963 3.355 17.477L2 22.5L7.233 21.263C8.692 22.059 10.334 22.478 12.006 22.479H12.01C17.515 22.479 21.996 17.999 21.999 12.494C22.001 9.825 20.963 7.316 19.077 5.428ZM16.898 16.054C16.69 16.637 15.671 17.199 15.213 17.24C14.755 17.282 14.326 17.447 12.218 16.616C9.681 15.616 8.079 13.015 7.955 12.849C7.83 12.682 6.936 11.496 6.936 10.268C6.936 9.04 7.581 8.436 7.81 8.187C8.039 7.937 8.309 7.875 8.476 7.875C8.642 7.875 8.809 7.875 8.954 7.881C9.132 7.888 9.329 7.897 9.516 8.312C9.738 8.806 10.223 10.04 10.285 10.165C10.347 10.29 10.389 10.436 10.306 10.602C10.223 10.768 10.181 10.872 10.057 11.018C9.932 11.164 9.795 11.343 9.683 11.455C9.558 11.579 9.428 11.715 9.573 11.964C9.719 12.214 10.219 13.031 10.961 13.692C11.915 14.542 12.718 14.805 12.968 14.931C13.218 15.056 13.363 15.035 13.509 14.868C13.655 14.702 14.133 14.14 14.299 13.89C14.465 13.64 14.632 13.682 14.861 13.765C15.09 13.848 16.317 14.452 16.566 14.577C16.816 14.702 16.982 14.764 17.044 14.868C17.106 14.971 17.106 15.471 16.898 16.054Z" fill="white"/>
</svg>
