<svg width="26" height="26" viewBox="0 0 26 26" fill="none" xmlns="http://www.w3.org/2000/svg">
<path d="M22.52 14.2535C22.5733 13.8535 22.6 13.4402 22.6 13.0002C22.6 12.5735 22.5733 12.1469 22.5067 11.7469L25.2133 9.64019C25.4533 9.45353 25.52 9.09353 25.3733 8.82686L22.8133 4.4002C22.6533 4.10686 22.32 4.01353 22.0267 4.10686L18.84 5.38686C18.1733 4.88019 17.4667 4.45353 16.68 4.13353L16.2 0.746862C16.1467 0.426862 15.88 0.200195 15.56 0.200195H10.44C10.12 0.200195 9.86665 0.426862 9.81332 0.746862L9.33332 4.13353C8.54665 4.45353 7.82665 4.89353 7.17332 5.38686L3.98665 4.10686C3.69332 4.00019 3.35998 4.10686 3.19998 4.4002L0.653317 8.82686C0.493317 9.10686 0.54665 9.45353 0.813317 9.64019L3.51998 11.7469C3.45332 12.1469 3.39998 12.5869 3.39998 13.0002C3.39998 13.4135 3.42665 13.8535 3.49332 14.2535L0.78665 16.3602C0.54665 16.5469 0.479984 16.9069 0.62665 17.1735L3.18665 21.6002C3.34665 21.8935 3.67998 21.9869 3.97332 21.8935L7.15998 20.6135C7.82665 21.1202 8.53332 21.5469 9.31998 21.8669L9.79998 25.2535C9.86665 25.5735 10.12 25.8002 10.44 25.8002H15.56C15.88 25.8002 16.1467 25.5735 16.1867 25.2535L16.6667 21.8669C17.4533 21.5469 18.1733 21.1202 18.8267 20.6135L22.0133 21.8935C22.3067 22.0002 22.64 21.8935 22.8 21.6002L25.36 17.1735C25.52 16.8802 25.4533 16.5469 25.2 16.3602L22.52 14.2535ZM13 17.8002C10.36 17.8002 8.19998 15.6402 8.19998 13.0002C8.19998 10.3602 10.36 8.20019 13 8.20019C15.64 8.20019 17.8 10.3602 17.8 13.0002C17.8 15.6402 15.64 17.8002 13 17.8002Z" fill="#0A89FF"/>
</svg>
