<svg width="16" height="16" viewBox="0 0 16 16" fill="none" xmlns="http://www.w3.org/2000/svg">
<g clip-path="url(#clip0_4825_17245)">
<path d="M7.99325 1.3335C4.31325 1.3335 1.33325 4.32016 1.33325 8.00016C1.33325 11.6802 4.31325 14.6668 7.99325 14.6668C11.6799 14.6668 14.6666 11.6802 14.6666 8.00016C14.6666 4.32016 11.6799 1.3335 7.99325 1.3335ZM7.99992 13.3335C5.05325 13.3335 2.66659 10.9468 2.66659 8.00016C2.66659 5.0535 5.05325 2.66683 7.99992 2.66683C10.9466 2.66683 13.3333 5.0535 13.3333 8.00016C13.3333 10.9468 10.9466 13.3335 7.99992 13.3335Z" fill="black"/>
<path d="M8.33325 4.6665H7.33325V8.6665L10.8333 10.7665L11.3333 9.9465L8.33325 8.1665V4.6665Z" fill="black"/>
</g>
<defs>
<clipPath id="clip0_4825_17245">
<rect width="16" height="16" fill="white"/>
</clipPath>
</defs>
</svg>
