<svg width="30" height="23" viewBox="0 0 30 23" fill="none" xmlns="http://www.w3.org/2000/svg">
<path d="M27.0007 0.666667C25.5207 0.2 23.894 0 22.334 0C19.734 0 16.934 0.533333 15.0007 2C13.0673 0.533333 10.2673 0 7.66732 0C5.06732 0 2.26732 0.533333 0.333984 2V21.5333C0.333984 21.8667 0.667318 22.2 1.00065 22.2C1.13398 22.2 1.20065 22.1333 1.33398 22.1333C3.13398 21.2667 5.73398 20.6667 7.66732 20.6667C10.2673 20.6667 13.0673 21.2 15.0007 22.6667C16.8007 21.5333 20.0673 20.6667 22.334 20.6667C24.534 20.6667 26.8007 21.0667 28.6673 22.0667C28.8007 22.1333 28.8673 22.1333 29.0007 22.1333C29.334 22.1333 29.6673 21.8 29.6673 21.4667V2C28.8673 1.4 28.0007 1 27.0007 0.666667ZM27.0007 18.6667C25.534 18.2 23.934 18 22.334 18C20.0673 18 16.8007 18.8667 15.0007 20V4.66667C16.8007 3.53333 20.0673 2.66667 22.334 2.66667C23.934 2.66667 25.534 2.86667 27.0007 3.33333V18.6667Z" fill="#1B89FC"/>
</svg>
