<svg width="32" height="32" viewBox="0 0 32 32" fill="none" xmlns="http://www.w3.org/2000/svg">
<g clip-path="url(#clip0_4900_17342)">
<path d="M25.2267 8.01332C24.96 7.22666 24.2133 6.66666 23.3333 6.66666H8.66667C7.78667 6.66666 7.05333 7.22666 6.77333 8.01332L4 16V26.6667C4 27.4 4.6 28 5.33333 28H6.66667C7.4 28 8 27.4 8 26.6667V25.3333H24V26.6667C24 27.4 24.6 28 25.3333 28H26.6667C27.4 28 28 27.4 28 26.6667V16L25.2267 8.01332ZM8.66667 21.3333C7.56 21.3333 6.66667 20.44 6.66667 19.3333C6.66667 18.2267 7.56 17.3333 8.66667 17.3333C9.77333 17.3333 10.6667 18.2267 10.6667 19.3333C10.6667 20.44 9.77333 21.3333 8.66667 21.3333ZM23.3333 21.3333C22.2267 21.3333 21.3333 20.44 21.3333 19.3333C21.3333 18.2267 22.2267 17.3333 23.3333 17.3333C24.44 17.3333 25.3333 18.2267 25.3333 19.3333C25.3333 20.44 24.44 21.3333 23.3333 21.3333ZM6.66667 14.6667L8.66667 8.66666H23.3333L25.3333 14.6667H6.66667Z" fill="#1B89FC"/>
</g>
<defs>
<clipPath id="clip0_4900_17342">
<rect width="32" height="32" fill="white"/>
</clipPath>
</defs>
</svg>
