<svg width="24" height="28" viewBox="0 0 24 28" fill="none" xmlns="http://www.w3.org/2000/svg">
<path d="M22.08 13.1467L13.3333 9.25333V7.33333C13.3333 6.6 12.7333 6 12 6C11.2667 6 10.6667 5.39999 10.6667 4.66666C10.6667 3.93333 11.2667 3.33333 12 3.33333C12.7333 3.33333 13.3333 3.93333 13.3333 4.66666H16C16 2.21333 13.7867 0.266662 11.2533 0.733328C9.68 1.02666 8.38667 2.29333 8.08 3.86666C7.68 5.94666 8.88 7.78666 10.6667 8.42666V9.26666L1.92 13.16C0.746667 13.6667 0 14.8267 0 16.0933V16.1067C0 17.8933 1.44 19.3333 3.22667 19.3333H5.33333V27.3333H18.6667V19.3333H20.7733C22.56 19.3333 24 17.8933 24 16.1067V16.0933C24 14.8267 23.2533 13.6667 22.08 13.1467ZM20.7733 16.6667H18.6667V15.3333H5.33333V16.6667H3.22667C2.92 16.6667 2.66667 16.4133 2.66667 16.0933C2.66667 15.8667 2.8 15.6667 3 15.5867L12 11.5867L21 15.5867C21.2 15.68 21.3333 15.88 21.3333 16.1067C21.3333 16.4133 21.08 16.6667 20.7733 16.6667Z" fill="#1B89FC"/>
</svg>
